<?xml version="1.0" encoding="UTF-8" standalone="no"?>
<svg
   id="Layer_2"
   data-name="Layer 2"
   viewBox="0 0 109.26955 109.64092"
   version="1.1"
   sodipodi:docname="ipl-mono-bold.svg"
   width="109.26955"
   height="109.64091"
   inkscape:version="1.1.2 (0a00cf5339, 2022-02-04, custom)"
   xmlns:inkscape="http://www.inkscape.org/namespaces/inkscape"
   xmlns:sodipodi="http://sodipodi.sourceforge.net/DTD/sodipodi-0.dtd"
   xmlns="http://www.w3.org/2000/svg"
   xmlns:svg="http://www.w3.org/2000/svg">
  <sodipodi:namedview
     id="namedview61"
     pagecolor="#040404"
     bordercolor="#666666"
     borderopacity="1.0"
     inkscape:pageshadow="2"
     inkscape:pageopacity="0"
     inkscape:pagecheckerboard="0"
     showgrid="false"
     fit-margin-top="0"
     fit-margin-left="0"
     fit-margin-right="0"
     fit-margin-bottom="0"
     inkscape:zoom="1.8542028"
     inkscape:cx="-39.909335"
     inkscape:cy="98.694706"
     inkscape:window-width="1920"
     inkscape:window-height="1009"
     inkscape:window-x="-8"
     inkscape:window-y="-8"
     inkscape:window-maximized="1"
     inkscape:current-layer="Layer_2" />
  <defs
     id="defs4">
    <style
       id="style2">.cls-1,.cls-2{fill:none;stroke:#fff;stroke-miterlimit:10;}.cls-1{stroke-width:4.15px;}.cls-2{stroke-linecap:round;stroke-width:4px;}.cls-3{font-size:41px;fill:#fff;font-family:Roboto-Light, Roboto;font-weight:300;}.cls-4{letter-spacing:-0.01em;}.cls-5{letter-spacing:-0.01em;}.cls-6{letter-spacing:0em;}.cls-7{letter-spacing:-0.01em;}.cls-8{letter-spacing:0em;}.cls-9{font-family:Roboto-Black, Roboto;font-weight:800;}.cls-10{letter-spacing:-0.01em;}.cls-11{letter-spacing:0.01em;}</style>
  </defs>
  <path
     class="cls-1"
     d="m 54.578333,100.62892 c 20.8,0 37.66,-5.439999 37.66,-12.159999 a 7.11,7.11 0 0 0 -3.56,-5.63 l -25.85,-38.55 v -25.89 c 1.33,-0.55 2.13,-1.23 2.13,-2 0,-1.8 -4.65,-3.26 -10.38,-3.26 h 0.06 c -5.73,0 -10.38,1.46 -10.38,3.26 0,0.75 0.74,1.53 2.08,2.08 l 0.06,25.79 -25.86,38.57 a 7.11,7.11 0 0 0 -3.56,5.63 c 0,6.72 16.86,12.159999 37.66,12.159999"
     id="path6"
     style="stroke-width:7.3;stroke-miterlimit:10;stroke-dasharray:none" />
  <path
     class="cls-2"
     d="m 34.138333,83.568921 c 3.5,1 10.5,3.5 17.5,3.5"
     id="path8"
     style="stroke-width:5;stroke-miterlimit:10;stroke-dasharray:none" />
  <path
     class="cls-2"
     d="m 38.138333,76.068921 a 45.29,45.29 0 0 0 14.75,2.75"
     id="path10"
     style="stroke-width:5;stroke-miterlimit:10;stroke-dasharray:none" />
  <path
     class="cls-2"
     d="m 42.118333,68.368921 a 32.38,32.38 0 0 0 12,1.95"
     id="path12"
     style="stroke-width:5;stroke-miterlimit:10;stroke-dasharray:none" />
  <path
     class="cls-2"
     d="m 45.638333,60.568921 c 2,0.5 3.5,1.25 10,1.25"
     id="path14"
     style="stroke-width:5;stroke-miterlimit:10;stroke-dasharray:none" />
  <path
     class="cls-1"
     d="m 93.018333,21.068921 a 51,51 0 0 1 -0.85,68.11"
     id="path16"
     style="stroke-width:7.3;stroke-miterlimit:10;stroke-dasharray:none" />
  <path
     class="cls-1"
     d="m 23.728333,14.068921 a 51,51 0 0 1 65.74,3.32"
     id="path18"
     style="stroke-width:7.3;stroke-miterlimit:10;stroke-dasharray:none" />
  <path
     class="cls-1"
     d="m 17.038333,89.118921 a 51,51 0 0 1 -3.71,-64.36"
     id="path20"
     style="stroke-width:7.3;stroke-miterlimit:10;stroke-dasharray:none" />
  <polyline
     class="cls-1"
     points="37.14 53.08 7.58 18.23 18.89 8.64 44.83 39.23"
     id="polyline22"
     transform="translate(1.5583337,1.5889205)"
     style="stroke-width:7.3;stroke-miterlimit:10;stroke-dasharray:none" />
  <path
     class="cls-1"
     d="M 38.698333,54.668921"
     id="path24"
     style="stroke-width:5;stroke-miterlimit:10;stroke-dasharray:none" />
  <polyline
     class="cls-1"
     points="88.62 90.85 89.96 92.43 78.65 102.02 74.31 96.91"
     id="polyline26"
     transform="translate(1.5583337,1.5889205)"
     style="stroke-width:7.3;stroke-miterlimit:10;stroke-dasharray:none" />
  <path
     class="cls-1"
     d="M 30.388333,97.768921"
     id="path28"
     style="stroke-width:5;stroke-miterlimit:10;stroke-dasharray:none" />
  <polyline
     class="cls-1"
     points="61.85 43.58 83.91 17.5 93.11 13.64 90.59 23.14 66.92 51.13"
     id="polyline30"
     transform="translate(1.5583337,1.5889205)"
     style="stroke-width:7.3;stroke-miterlimit:10;stroke-dasharray:none" />
  <polyline
     class="cls-1"
     points="28.83 96.18 23.14 102.91 16.46 97.27 20.22 92.82"
     id="polyline32"
     transform="translate(1.5583337,1.5889205)"
     style="stroke-width:7.3;stroke-miterlimit:10;stroke-dasharray:none" />
</svg>
